<svg width="260.84755859375px" height="121.40498046875px" xmlns="http://www.w3.org/2000/svg" viewBox="119.57622070312499 14.297509765625001 260.84755859375 121.40498046875" style="background: rgba(0, 0, 0, 0);" preserveAspectRatio="xMidYMid"><defs><linearGradient id="editing-outline-gradient" x1="-0.41354545764260087" x2="1.4135454576426008" y1="0.09326335692419985" y2="0.9067366430758002"><stop offset="0" stop-color="#ee4208"></stop><stop offset="1" stop-color="#4139ff"></stop></linearGradient><filter id="editing-outline" x="-100%" y="-100%" width="300%" height="300%"><feMorphology in="SourceGraphic" operator="dilate" radius="1" result="outline"></feMorphology><feComposite operator="out" in="outline" in2="SourceAlpha"></feComposite></filter></defs><g filter="url(#editing-outline)"><g transform="translate(161.96999752521515, 98.68000030517578)"><path d="M48.83-10.69L48.83-10.69Q44.61-4.86 40.54-1.79L40.54-1.79L40.54-1.79Q36.48 1.28 32.29 1.28L32.29 1.28L32.29 1.28Q28.10 1.28 26.62 0.45L26.62 0.45L26.62-13.63L26.62-13.63Q22.98-3.90 16.45-0.13L16.45-0.13L16.45-0.13Q14.08 1.28 11.84 1.28L11.84 1.28L11.84 1.28Q7.55 1.28 5.70 0.45L5.70 0.45L5.70 0.45Q5.25-14.21 4.86-18.27L4.86-18.27L4.86-18.27Q4.48-22.34 4.16-24.83L4.16-24.83L4.16-24.83Q3.52-29.82 1.34-31.87L1.34-31.87L1.34-31.87Q4.10-33.92 7.94-33.92L7.94-33.92L7.94-33.92Q15.36-33.92 16.38-24.70L16.38-24.70L16.38-24.70Q16.64-22.53 16.64-20.22L16.64-20.22L16.64-20.22Q16.64-16.77 15.87-4.74L15.87-4.74L15.87-4.74Q17.41-5.44 19.04-7.97L19.04-7.97L19.04-7.97Q20.67-10.50 22.02-13.95L22.02-13.95L22.02-13.95Q25.02-21.95 25.02-28.86L25.02-28.86L25.02-28.86Q25.02-29.95 24.74-31.10L24.74-31.10L24.74-31.10Q24.45-32.26 24.13-32.58L24.13-32.58L24.13-32.58Q26.37-33.92 29.79-33.92L29.79-33.92L29.79-33.92Q33.22-33.92 34.85-31.58L34.85-31.58L34.85-31.58Q36.48-29.25 36.93-24.96L36.93-24.96L36.93-24.96Q37.44-19.52 37.44-16.26L37.44-16.26L37.44-16.26Q37.44-11.71 36.99-4.99L36.99-4.99L36.99-4.99Q40.19-7.30 42.82-14.85L42.82-14.85L42.82-14.85Q45.44-22.40 45.44-27.78L45.44-27.78L45.44-27.78Q45.44-30.14 45.06-31.55L45.06-31.55L45.06-31.55Q47.17-33.92 50.82-33.92L50.82-33.92L50.82-33.92Q53.06-33.92 54.69-32.70L54.69-32.70L54.69-32.70Q56.32-31.49 56.32-29.22L56.32-29.22L56.32-29.22Q56.32-26.94 55.65-24.51L55.65-24.51L55.65-24.51Q54.98-22.08 53.89-19.58L53.89-19.58L53.89-19.58Q51.78-14.59 48.83-10.69L48.83-10.69ZM60.83-1.92L60.83-1.92L60.83-1.92Q59.33-3.58 58.66-6.21L58.66-6.21L58.66-6.21Q57.98-8.83 57.98-13.12L57.98-13.12L57.98-13.12Q57.98-17.41 59.46-21.31L59.46-21.31L59.46-21.31Q60.93-25.22 63.62-28.03L63.62-28.03L63.62-28.03Q69.12-33.92 78.21-33.92L78.21-33.92L78.21-33.92Q81.47-33.92 83.84-32.83L83.84-32.83L94.78-33.92L90.05-8.96L90.05-8.96Q89.86-8.19 89.86-6.78L89.86-6.78L89.86-6.78Q89.86-5.38 90.72-4.48L90.72-4.48L90.72-4.48Q91.58-3.58 92.86-3.46L92.86-3.46L92.86-3.46Q92.22-1.28 89.89 0L89.89 0L89.89 0Q87.55 1.28 84.93 1.28L84.93 1.28L84.93 1.28Q82.30 1.28 80.54 0.29L80.54 0.29L80.54 0.29Q78.78-0.70 78.27-2.37L78.27-2.37L78.27-2.37Q77.25-0.77 75.07 0.26L75.07 0.26L75.07 0.26Q72.90 1.28 69.98 1.28L69.98 1.28L69.98 1.28Q67.07 1.28 64.70 0.51L64.70 0.51L64.70 0.51Q62.34-0.26 60.83-1.92ZM74.34-27.90L74.34-27.90L74.34-27.90Q73.60-26.75 72.96-24.80L72.96-24.80L72.96-24.80Q72.32-22.85 71.26-17.63L71.26-17.63L71.26-17.63Q70.21-12.42 70.21-8.70L70.21-8.70L70.21-8.70Q70.21-4.99 70.78-3.90L70.78-3.90L70.78-3.90Q71.36-2.82 72.38-2.82L72.38-2.82L72.38-2.82Q74.43-2.82 75.94-4.77L75.94-4.77L75.94-4.77Q77.44-6.72 78.02-10.18L78.02-10.18L81.41-28.93L81.41-28.93Q80.06-30.08 78.50-30.08L78.50-30.08L78.50-30.08Q76.93-30.08 76-29.57L76-29.57L76-29.57Q75.07-29.06 74.34-27.90ZM118.14-33.92L118.14-33.92L118.14-33.92Q120.45-33.92 122.24-33.41L122.24-33.41L122.24-33.41Q122.30-33.66 122.43-34.37L122.43-34.37L122.75-36.35L122.75-36.35Q123.01-37.63 123.39-39.74L123.39-39.74L124.42-44.80L137.15-46.08L130.05-8.96L130.05-8.96Q129.98-8.58 129.98-7.94L129.98-7.94L129.98-6.91L129.98-6.91Q129.98-5.50 130.69-4.45L130.69-4.45L130.69-4.45Q131.39-3.39 132.54-3.39L132.54-3.39L132.54-3.39Q131.26-0.38 127.36 0.90L127.36 0.90L127.36 0.90Q126.02 1.28 124.13 1.28L124.13 1.28L124.13 1.28Q122.24 1.28 120.51 0.29L120.51 0.29L120.51 0.29Q118.78-0.70 118.27-2.37L118.27-2.37L118.27-2.37Q117.25-0.70 115.20 0.29L115.20 0.29L115.20 0.29Q113.15 1.28 110.18 1.28L110.18 1.28L110.18 1.28Q107.20 1.28 104.74 0.51L104.74 0.51L104.74 0.51Q102.27-0.26 100.74-1.92L100.74-1.92L100.74-1.92Q97.92-5.18 97.92-12.61L97.92-12.61L97.92-12.61Q97.92-22.21 103.55-28.03L103.55-28.03L103.55-28.03Q109.18-33.92 118.14-33.92ZM117.70-30.08L117.70-30.08L117.70-30.08Q115.33-30.08 114.05-27.52L114.05-27.52L114.05-27.52Q112.77-24.96 111.46-18.62L111.46-18.62L111.46-18.62Q110.14-12.29 110.14-6.59L110.14-6.59L110.14-6.59Q110.14-2.69 112.45-2.69L112.45-2.69L112.45-2.69Q114.50-2.69 115.94-4.74L115.94-4.74L115.94-4.74Q117.38-6.78 117.95-10.18L117.95-10.18L121.41-28.93L121.41-28.93Q120.06-30.08 117.70-30.08ZM140.77-1.92L140.77-1.92L140.77-1.92Q139.26-3.58 138.59-6.21L138.59-6.21L138.59-6.21Q137.92-8.83 137.92-13.12L137.92-13.12L137.92-13.12Q137.92-17.41 139.39-21.31L139.39-21.31L139.39-21.31Q140.86-25.22 143.55-28.03L143.55-28.03L143.55-28.03Q149.06-33.92 158.14-33.92L158.14-33.92L158.14-33.92Q161.41-33.92 163.78-32.83L163.78-32.83L174.72-33.92L169.98-8.96L169.98-8.96Q169.79-8.19 169.79-6.78L169.79-6.78L169.79-6.78Q169.79-5.38 170.66-4.48L170.66-4.48L170.66-4.48Q171.52-3.58 172.80-3.46L172.80-3.46L172.80-3.46Q172.16-1.28 169.82 0L169.82 0L169.82 0Q167.49 1.28 164.86 1.28L164.86 1.28L164.86 1.28Q162.24 1.28 160.48 0.29L160.48 0.29L160.48 0.29Q158.72-0.70 158.21-2.37L158.21-2.37L158.21-2.37Q157.18-0.77 155.01 0.26L155.01 0.26L155.01 0.26Q152.83 1.28 149.92 1.28L149.92 1.28L149.92 1.28Q147.01 1.28 144.64 0.51L144.64 0.51L144.64 0.51Q142.27-0.26 140.77-1.92ZM154.27-27.90L154.27-27.90L154.27-27.90Q153.54-26.75 152.90-24.80L152.90-24.80L152.90-24.80Q152.26-22.85 151.20-17.63L151.20-17.63L151.20-17.63Q150.14-12.42 150.14-8.70L150.14-8.70L150.14-8.70Q150.14-4.99 150.72-3.90L150.72-3.90L150.72-3.90Q151.30-2.82 152.32-2.82L152.32-2.82L152.32-2.82Q154.37-2.82 155.87-4.77L155.87-4.77L155.87-4.77Q157.38-6.72 157.95-10.18L157.95-10.18L161.34-28.93L161.34-28.93Q160-30.08 158.43-30.08L158.43-30.08L158.43-30.08Q156.86-30.08 155.94-29.57L155.94-29.57L155.94-29.57Q155.01-29.06 154.27-27.90Z" fill="url(#editing-outline-gradient)"></path></g></g><style>text {
  font-size: 64px;
  font-family: Arial Black;
  dominant-baseline: central;
  text-anchor: middle;
}</style></svg>