<?xml version="1.0" encoding="iso-8859-1"?>
<!-- Generator: Adobe Illustrator 19.0.0, SVG Export Plug-In . SVG Version: 6.00 Build 0)  -->
<svg version="1.1" id="Capa_1" xmlns="http://www.w3.org/2000/svg" xmlns:xlink="http://www.w3.org/1999/xlink" x="0px" y="0px"
	 viewBox="0 0 480 480" style="enable-background:new 0 0 480 480;" xml:space="preserve">
<g>
	<g>
		<path d="M415.496,253.168l-24-64c-1.171-3.125-4.159-5.194-7.496-5.192h-56c-4.418,0-8,3.582-8,8v64c0,4.418,3.582,8,8,8h80
			c2.623,0.001,5.081-1.284,6.576-3.44C416.073,258.38,416.417,255.626,415.496,253.168z M336,247.976v-48h42.456l18,48H336z"/>
	</g>
</g>
<g>
	<g>
		<path d="M476.44,273.32l-21.856-14.568L419.2,164.296c-8.26-21.808-29.121-36.256-52.44-36.32H304v-40c0-4.418-3.582-8-8-8H8
			c-4.418,0-8,3.582-8,8v272c0,4.418,3.582,8,8,8h56.8c4.396,21.65,25.51,35.636,47.16,31.24
			c15.741-3.196,28.044-15.499,31.24-31.24h185.6c4.396,21.65,25.51,35.636,47.16,31.24c15.741-3.196,28.044-15.499,31.24-31.24H472
			c4.418,0,8-3.582,8-8v-80C480,277.302,478.665,274.804,476.44,273.32z M64.808,351.976H16v-16h56.208
			C68.571,340.686,66.042,346.155,64.808,351.976z M104,383.976c-13.255,0-24-10.745-24-24s10.745-24,24-24s24,10.745,24,24
			S117.255,383.976,104,383.976z M288,351.976H143.2c-3.827-18.611-20.199-31.976-39.2-32H16v-176h272V351.976z M288,127.976H16v-32
			h272V127.976z M368,383.976c-13.255,0-24-10.745-24-24s10.745-24,24-24s24,10.745,24,24S381.255,383.976,368,383.976z
			 M464,351.976h-56.8c-1.234-5.821-3.763-11.29-7.4-16H464V351.976z M464,287.976h-24v16h24v16h-96
			c-19.001,0.024-35.373,13.389-39.2,32H304v-208h62.76c16.642,0.056,31.524,10.372,37.416,25.936l36.328,96.872
			c0.595,1.568,1.663,2.913,3.056,3.848L464,284.256V287.976z"/>
	</g>
</g>
<g>
	<g>
		<rect x="152" y="319.976" width="120" height="16"/>
	</g>
</g>
<g>
</g>
<g>
</g>
<g>
</g>
<g>
</g>
<g>
</g>
<g>
</g>
<g>
</g>
<g>
</g>
<g>
</g>
<g>
</g>
<g>
</g>
<g>
</g>
<g>
</g>
<g>
</g>
<g>
</g>
</svg>
